<svg width="969" height="859" viewBox="0 0 969 859" fill="none" xmlns="http://www.w3.org/2000/svg">
<line y1="-1.11111" x2="28.2657" y2="-1.11111" transform="matrix(0.490026 -0.871708 0.973338 0.229376 663.85 27.5061)" stroke="#E6E8EE" stroke-opacity="0.1" stroke-width="2.22222"/>
<line y1="-1.11111" x2="30.4245" y2="-1.11111" transform="matrix(0.665536 -0.746366 0.936693 0.350152 750.175 26.688)" stroke="#E6E8EE" stroke-opacity="0.1" stroke-width="2.22222"/>
<line y1="-1.11111" x2="32.8798" y2="-1.11111" transform="matrix(0.791708 -0.610899 0.878694 0.477385 836.957 25.8676)" stroke="#E6E8EE" stroke-opacity="0.1" stroke-width="2.22222"/>
<line y1="-1.11111" x2="35.3055" y2="-1.11111" transform="matrix(0.878694 -0.477386 0.791708 0.6109 924.323 24.2292)" stroke="#E6E8EE" stroke-opacity="0.1" stroke-width="2.22222"/>
<line y1="-1.11111" x2="35.3055" y2="-1.11111" transform="matrix(-0.878693 -0.477386 0.791707 -0.6109 59.6663 24.2292)" stroke="#E6E8EE" stroke-opacity="0.1" stroke-width="2.22222"/>
<line y1="-1.11111" x2="32.8797" y2="-1.11111" transform="matrix(-0.791708 -0.6109 0.878694 -0.477386 147.045 25.8676)" stroke="#E6E8EE" stroke-opacity="0.1" stroke-width="2.22222"/>
<line y1="-1.11111" x2="30.4245" y2="-1.11111" transform="matrix(-0.665536 -0.746365 0.936693 -0.350151 233.827 26.688)" stroke="#E6E8EE" stroke-opacity="0.1" stroke-width="2.22222"/>
<line y1="-1.11111" x2="28.2657" y2="-1.11111" transform="matrix(-0.490025 -0.871709 0.973338 -0.229376 320.152 27.5061)" stroke="#E6E8EE" stroke-opacity="0.1" stroke-width="2.22222"/>
<line y1="-1.11111" x2="26.7628" y2="-1.11111" transform="matrix(-0.262763 -0.96486 0.993546 -0.113429 406.159 28.3264)" stroke="#E6E8EE" stroke-opacity="0.1" stroke-width="2.22222"/>
<line x1="490.89" y1="28.3264" x2="490.89" y2="2.10566" stroke="#E6E8EE" stroke-opacity="0.1" stroke-width="2.22222"/>
<line y1="-1.11111" x2="26.7628" y2="-1.11111" transform="matrix(0.262763 -0.96486 0.993546 0.113429 577.843 28.3264)" stroke="#E6E8EE" stroke-opacity="0.1" stroke-width="2.22222"/>
<line y1="-1.11111" x2="28.2657" y2="-1.11111" transform="matrix(0.490025 -0.871709 0.973338 0.229376 572.738 73.3935)" stroke="#E6E8EE" stroke-opacity="0.1" stroke-width="2.22222"/>
<line y1="-1.11111" x2="30.4245" y2="-1.11111" transform="matrix(0.665536 -0.746365 0.936693 0.350151 659.05 72.5732)" stroke="#E6E8EE" stroke-opacity="0.1" stroke-width="2.22222"/>
<line y1="-1.11111" x2="32.8797" y2="-1.11111" transform="matrix(0.791707 -0.6109 0.878693 0.477386 745.831 71.7551)" stroke="#E6E8EE" stroke-opacity="0.1" stroke-width="2.22222"/>
<line y1="-1.11111" x2="35.3055" y2="-1.11111" transform="matrix(0.878694 -0.477386 0.791708 0.6109 833.21 70.1167)" stroke="#E6E8EE" stroke-opacity="0.1" stroke-width="2.22222"/>
<line y1="-1.11111" x2="37.442" y2="-1.11111" transform="matrix(0.936693 -0.350151 0.665537 0.746365 921.288 67.6579)" stroke="#E6E8EE" stroke-opacity="0.1" stroke-width="2.22222"/>
<line y1="-1.11111" x2="32.8797" y2="-1.11111" transform="matrix(-0.791707 -0.6109 0.878693 -0.477386 55.9326 71.755)" stroke="#E6E8EE" stroke-opacity="0.1" stroke-width="2.22222"/>
<line y1="-1.11111" x2="30.4245" y2="-1.11111" transform="matrix(-0.665536 -0.746365 0.936693 -0.350151 142.714 72.5732)" stroke="#E6E8EE" stroke-opacity="0.1" stroke-width="2.22222"/>
<line y1="-1.11111" x2="28.2657" y2="-1.11111" transform="matrix(-0.490025 -0.871708 0.973338 -0.229376 229.026 73.3935)" stroke="#E6E8EE" stroke-opacity="0.1" stroke-width="2.22222"/>
<line y1="-1.11111" x2="26.7628" y2="-1.11111" transform="matrix(-0.262763 -0.96486 0.993546 -0.11343 315.033 74.2116)" stroke="#E6E8EE" stroke-opacity="0.1" stroke-width="2.22222"/>
<line x1="399.764" y1="74.2116" x2="399.764" y2="47.9909" stroke="#E6E8EE" stroke-opacity="0.1" stroke-width="2.22222"/>
<line y1="-1.11111" x2="26.7628" y2="-1.11111" transform="matrix(0.262763 -0.96486 0.993546 0.113429 486.73 74.2116)" stroke="#E6E8EE" stroke-opacity="0.1" stroke-width="2.22222"/>
<line y1="-1.11111" x2="28.2657" y2="-1.11111" transform="matrix(0.490024 -0.871709 0.973338 0.229377 481.612 119.28)" stroke="#E6E8EE" stroke-opacity="0.1" stroke-width="2.22222"/>
<line y1="-1.11111" x2="30.4245" y2="-1.11111" transform="matrix(0.665536 -0.746365 0.936693 0.350151 567.937 118.46)" stroke="#E6E8EE" stroke-opacity="0.1" stroke-width="2.22222"/>
<line y1="-1.11111" x2="32.8797" y2="-1.11111" transform="matrix(0.791707 -0.6109 0.878693 0.477386 654.719 117.64)" stroke="#E6E8EE" stroke-opacity="0.1" stroke-width="2.22222"/>
<line y1="-1.11111" x2="35.3054" y2="-1.11111" transform="matrix(0.878693 -0.477387 0.791707 0.610901 742.097 116.001)" stroke="#E6E8EE" stroke-opacity="0.1" stroke-width="2.22222"/>
<line y1="-1.11111" x2="37.4419" y2="-1.11111" transform="matrix(0.936693 -0.350152 0.665536 0.746366 830.175 113.543)" stroke="#E6E8EE" stroke-opacity="0.1" stroke-width="2.22222"/>
<line y1="-1.11111" x2="39.0974" y2="-1.11111" transform="matrix(0.973338 -0.229376 0.490025 0.871708 919.052 111.904)" stroke="#E6E8EE" stroke-opacity="0.1" stroke-width="2.22222"/>
<line y1="-1.11111" x2="30.4245" y2="-1.11111" transform="matrix(-0.665536 -0.746365 0.936693 -0.350151 51.5889 118.46)" stroke="#E6E8EE" stroke-opacity="0.1" stroke-width="2.22222"/>
<line y1="-1.11111" x2="28.2657" y2="-1.11111" transform="matrix(-0.490025 -0.871709 0.973338 -0.229376 137.914 119.28)" stroke="#E6E8EE" stroke-opacity="0.1" stroke-width="2.22222"/>
<line y1="-1.11111" x2="26.7628" y2="-1.11111" transform="matrix(-0.262763 -0.96486 0.993546 -0.113429 223.921 120.099)" stroke="#E6E8EE" stroke-opacity="0.1" stroke-width="2.22222"/>
<line x1="308.652" y1="120.099" x2="308.652" y2="93.8779" stroke="#E6E8EE" stroke-opacity="0.1" stroke-width="2.22222"/>
<line y1="-1.11111" x2="26.7628" y2="-1.11111" transform="matrix(0.262763 -0.96486 0.993546 0.113429 395.605 120.099)" stroke="#E6E8EE" stroke-opacity="0.1" stroke-width="2.22222"/>
<line y1="-1.11111" x2="28.2657" y2="-1.11111" transform="matrix(0.490025 -0.871709 0.973338 0.229376 390.499 165.165)" stroke="#E6E8EE" stroke-opacity="0.1" stroke-width="2.22222"/>
<line y1="-1.11111" x2="30.4245" y2="-1.11111" transform="matrix(0.665536 -0.746365 0.936693 0.350151 476.812 164.347)" stroke="#E6E8EE" stroke-opacity="0.1" stroke-width="2.22222"/>
<line y1="-1.11111" x2="32.8797" y2="-1.11111" transform="matrix(0.791707 -0.6109 0.878693 0.477386 563.594 163.527)" stroke="#E6E8EE" stroke-opacity="0.1" stroke-width="2.22222"/>
<line y1="-1.11111" x2="35.3055" y2="-1.11111" transform="matrix(0.878693 -0.477387 0.791707 0.610901 650.972 161.888)" stroke="#E6E8EE" stroke-opacity="0.1" stroke-width="2.22222"/>
<line y1="-1.11111" x2="37.442" y2="-1.11111" transform="matrix(0.936693 -0.350151 0.665536 0.746365 739.062 159.43)" stroke="#E6E8EE" stroke-opacity="0.1" stroke-width="2.22222"/>
<line y1="-1.11111" x2="39.0974" y2="-1.11111" transform="matrix(0.973338 -0.229377 0.490024 0.871709 827.94 157.791)" stroke="#E6E8EE" stroke-opacity="0.1" stroke-width="2.22222"/>
<line y1="-1.11111" x2="40.1411" y2="-1.11111" transform="matrix(0.993546 -0.11343 0.262763 0.96486 917.693 155.333)" stroke="#E6E8EE" stroke-opacity="0.1" stroke-width="2.22222"/>
<line y1="-1.11111" x2="28.2657" y2="-1.11111" transform="matrix(-0.490025 -0.871708 0.973338 -0.229376 46.7883 165.165)" stroke="#E6E8EE" stroke-opacity="0.1" stroke-width="2.22222"/>
<line y1="-1.11111" x2="26.7628" y2="-1.11111" transform="matrix(-0.262763 -0.96486 0.993546 -0.11343 132.795 165.986)" stroke="#E6E8EE" stroke-opacity="0.1" stroke-width="2.22222"/>
<line x1="217.526" y1="165.986" x2="217.526" y2="139.765" stroke="#E6E8EE" stroke-opacity="0.1" stroke-width="2.22222"/>
<line y1="-1.11111" x2="26.7628" y2="-1.11111" transform="matrix(0.262763 -0.96486 0.993546 0.11343 304.492 165.986)" stroke="#E6E8EE" stroke-opacity="0.1" stroke-width="2.22222"/>
<line y1="-1.11111" x2="28.2657" y2="-1.11111" transform="matrix(0.490024 -0.871709 0.973338 0.229377 299.374 211.052)" stroke="#E6E8EE" stroke-opacity="0.1" stroke-width="2.22222"/>
<line y1="-1.11111" x2="30.4245" y2="-1.11111" transform="matrix(0.665536 -0.746365 0.936693 0.350151 385.698 210.232)" stroke="#E6E8EE" stroke-opacity="0.1" stroke-width="2.22222"/>
<line y1="-1.11111" x2="32.8798" y2="-1.11111" transform="matrix(0.791708 -0.6109 0.878694 0.477386 472.48 209.414)" stroke="#E6E8EE" stroke-opacity="0.1" stroke-width="2.22222"/>
<line y1="-1.11111" x2="35.3055" y2="-1.11111" transform="matrix(0.878694 -0.477386 0.791708 0.6109 559.859 207.774)" stroke="#E6E8EE" stroke-opacity="0.1" stroke-width="2.22222"/>
<line y1="-1.11111" x2="37.442" y2="-1.11111" transform="matrix(0.936693 -0.350151 0.665536 0.746365 647.937 205.317)" stroke="#E6E8EE" stroke-opacity="0.1" stroke-width="2.22222"/>
<line y1="-1.11111" x2="39.0974" y2="-1.11111" transform="matrix(0.973338 -0.229376 0.490025 0.871708 736.814 203.676)" stroke="#E6E8EE" stroke-opacity="0.1" stroke-width="2.22222"/>
<line y1="-1.11111" x2="40.1412" y2="-1.11111" transform="matrix(0.993546 -0.113429 0.262763 0.96486 826.568 201.22)" stroke="#E6E8EE" stroke-opacity="0.1" stroke-width="2.22222"/>
<line y1="-1.11111" x2="26.7628" y2="-1.11111" transform="matrix(-0.262763 -0.96486 0.993546 -0.113429 41.6826 211.871)" stroke="#E6E8EE" stroke-opacity="0.1" stroke-width="2.22222"/>
<line x1="126.414" y1="211.871" x2="126.414" y2="185.65" stroke="#E6E8EE" stroke-opacity="0.1" stroke-width="2.22222"/>
<line y1="-1.11111" x2="26.7628" y2="-1.11111" transform="matrix(0.262763 -0.96486 0.993546 0.11343 213.367 211.871)" stroke="#E6E8EE" stroke-opacity="0.1" stroke-width="2.22222"/>
<line x1="967.847" y1="199.872" x2="927.35" y2="199.872" stroke="#E6E8EE" stroke-opacity="0.1" stroke-width="2.22222"/>
<line y1="-1.11111" x2="28.2657" y2="-1.11111" transform="matrix(0.490025 -0.871708 0.973338 0.229376 208.261 256.938)" stroke="#E6E8EE" stroke-opacity="0.1" stroke-width="2.22222"/>
<line y1="-1.11111" x2="30.4245" y2="-1.11111" transform="matrix(0.665536 -0.746365 0.936693 0.350151 294.573 256.119)" stroke="#E6E8EE" stroke-opacity="0.1" stroke-width="2.22222"/>
<line y1="-1.11111" x2="32.8798" y2="-1.11111" transform="matrix(0.791708 -0.6109 0.878694 0.477386 381.355 255.299)" stroke="#E6E8EE" stroke-opacity="0.1" stroke-width="2.22222"/>
<line y1="-1.11111" x2="35.3055" y2="-1.11111" transform="matrix(0.878694 -0.477386 0.791708 0.6109 468.734 253.661)" stroke="#E6E8EE" stroke-opacity="0.1" stroke-width="2.22222"/>
<line y1="-1.11111" x2="37.442" y2="-1.11111" transform="matrix(0.936693 -0.350152 0.665536 0.746366 556.824 251.202)" stroke="#E6E8EE" stroke-opacity="0.1" stroke-width="2.22222"/>
<line y1="-1.11111" x2="39.0974" y2="-1.11111" transform="matrix(0.973338 -0.229377 0.490024 0.871709 645.701 249.563)" stroke="#E6E8EE" stroke-opacity="0.1" stroke-width="2.22222"/>
<line y1="-1.11111" x2="40.1411" y2="-1.11111" transform="matrix(0.993546 -0.11343 0.262763 0.96486 735.455 247.105)" stroke="#E6E8EE" stroke-opacity="0.1" stroke-width="2.22222"/>
<line x1="35.2883" y1="257.758" x2="35.2883" y2="231.537" stroke="#E6E8EE" stroke-opacity="0.1" stroke-width="2.22222"/>
<line y1="-1.11111" x2="26.7628" y2="-1.11111" transform="matrix(0.262763 -0.96486 0.993546 0.113429 122.254 257.758)" stroke="#E6E8EE" stroke-opacity="0.1" stroke-width="2.22222"/>
<line x1="876.722" y1="245.759" x2="836.225" y2="245.759" stroke="#E6E8EE" stroke-opacity="0.1" stroke-width="2.22222"/>
<line y1="-1.11111" x2="40.1412" y2="-1.11111" transform="matrix(-0.993546 -0.113429 0.262763 -0.96486 967.39 247.105)" stroke="#E6E8EE" stroke-opacity="0.1" stroke-width="2.22222"/>
<line y1="-1.11111" x2="28.2657" y2="-1.11111" transform="matrix(0.490025 -0.871708 0.973338 0.229376 117.136 302.825)" stroke="#E6E8EE" stroke-opacity="0.1" stroke-width="2.22222"/>
<line y1="-1.11111" x2="30.4245" y2="-1.11111" transform="matrix(0.665536 -0.746366 0.936693 0.350152 203.46 302.005)" stroke="#E6E8EE" stroke-opacity="0.1" stroke-width="2.22222"/>
<line y1="-1.11111" x2="32.8798" y2="-1.11111" transform="matrix(0.791708 -0.6109 0.878694 0.477386 290.242 301.186)" stroke="#E6E8EE" stroke-opacity="0.1" stroke-width="2.22222"/>
<line y1="-1.11111" x2="35.3055" y2="-1.11111" transform="matrix(0.878693 -0.477387 0.791707 0.610901 377.621 299.548)" stroke="#E6E8EE" stroke-opacity="0.1" stroke-width="2.22222"/>
<line y1="-1.11111" x2="37.442" y2="-1.11111" transform="matrix(0.936693 -0.350152 0.665536 0.746366 465.698 297.089)" stroke="#E6E8EE" stroke-opacity="0.1" stroke-width="2.22222"/>
<line y1="-1.11111" x2="39.0974" y2="-1.11111" transform="matrix(0.973338 -0.229376 0.490025 0.871709 554.576 295.45)" stroke="#E6E8EE" stroke-opacity="0.1" stroke-width="2.22222"/>
<line y1="-1.11111" x2="40.1411" y2="-1.11111" transform="matrix(0.993546 -0.113429 0.262763 0.96486 644.33 292.992)" stroke="#E6E8EE" stroke-opacity="0.1" stroke-width="2.22222"/>
<line y1="-1.11111" x2="26.7628" y2="-1.11111" transform="matrix(0.262763 -0.96486 0.993546 0.11343 31.1287 303.645)" stroke="#E6E8EE" stroke-opacity="0.1" stroke-width="2.22222"/>
<line x1="785.61" y1="291.644" x2="745.112" y2="291.644" stroke="#E6E8EE" stroke-opacity="0.1" stroke-width="2.22222"/>
<line y1="-1.11111" x2="40.1411" y2="-1.11111" transform="matrix(-0.993546 -0.11343 0.262763 -0.96486 876.265 292.992)" stroke="#E6E8EE" stroke-opacity="0.1" stroke-width="2.22222"/>
<line y1="-1.11111" x2="39.0974" y2="-1.11111" transform="matrix(-0.973338 -0.229377 0.490024 -0.871709 966.018 295.45)" stroke="#E6E8EE" stroke-opacity="0.1" stroke-width="2.22222"/>
<line y1="-1.11111" x2="28.2657" y2="-1.11111" transform="matrix(0.490025 -0.871708 0.973338 0.229376 26.0229 348.712)" stroke="#E6E8EE" stroke-opacity="0.1" stroke-width="2.22222"/>
<line y1="-1.11111" x2="30.4245" y2="-1.11111" transform="matrix(0.665536 -0.746365 0.936693 0.350151 112.335 347.892)" stroke="#E6E8EE" stroke-opacity="0.1" stroke-width="2.22222"/>
<line y1="-1.11111" x2="32.8797" y2="-1.11111" transform="matrix(0.791707 -0.610901 0.878693 0.477387 199.116 347.071)" stroke="#E6E8EE" stroke-opacity="0.1" stroke-width="2.22222"/>
<line y1="-1.11111" x2="35.3055" y2="-1.11111" transform="matrix(0.878694 -0.477386 0.791708 0.6109 286.496 345.433)" stroke="#E6E8EE" stroke-opacity="0.1" stroke-width="2.22222"/>
<line y1="-1.11111" x2="37.442" y2="-1.11111" transform="matrix(0.936693 -0.350151 0.665536 0.746365 374.586 342.974)" stroke="#E6E8EE" stroke-opacity="0.1" stroke-width="2.22222"/>
<line y1="-1.11111" x2="39.0974" y2="-1.11111" transform="matrix(0.973338 -0.229376 0.490025 0.871709 463.463 341.336)" stroke="#E6E8EE" stroke-opacity="0.1" stroke-width="2.22222"/>
<line y1="-1.11111" x2="40.1411" y2="-1.11111" transform="matrix(0.993546 -0.113429 0.262763 0.96486 553.217 338.879)" stroke="#E6E8EE" stroke-opacity="0.1" stroke-width="2.22222"/>
<line y1="-1.11111" x2="37.4419" y2="-1.11111" transform="matrix(-0.936693 -0.350152 0.665536 -0.746366 963.783 342.974)" stroke="#E6E8EE" stroke-opacity="0.1" stroke-width="2.22222"/>
<line x1="694.496" y1="337.531" x2="653.999" y2="337.531" stroke="#E6E8EE" stroke-opacity="0.1" stroke-width="2.22222"/>
<line y1="-1.11111" x2="40.1411" y2="-1.11111" transform="matrix(-0.993546 -0.11343 0.262763 -0.96486 785.152 338.879)" stroke="#E6E8EE" stroke-opacity="0.1" stroke-width="2.22222"/>
<line y1="-1.11111" x2="39.0974" y2="-1.11111" transform="matrix(-0.973338 -0.229376 0.490025 -0.871708 874.893 341.336)" stroke="#E6E8EE" stroke-opacity="0.1" stroke-width="2.22222"/>
<line y1="-1.11111" x2="30.4245" y2="-1.11111" transform="matrix(0.665536 -0.746365 0.936693 0.350151 21.2224 393.779)" stroke="#E6E8EE" stroke-opacity="0.1" stroke-width="2.22222"/>
<line y1="-1.11111" x2="32.8797" y2="-1.11111" transform="matrix(0.791708 -0.6109 0.878694 0.477386 108.004 392.958)" stroke="#E6E8EE" stroke-opacity="0.1" stroke-width="2.22222"/>
<line y1="-1.11111" x2="35.3055" y2="-1.11111" transform="matrix(0.878694 -0.477386 0.791708 0.6109 195.383 391.32)" stroke="#E6E8EE" stroke-opacity="0.1" stroke-width="2.22222"/>
<line y1="-1.11111" x2="37.442" y2="-1.11111" transform="matrix(0.936693 -0.350151 0.665536 0.746365 283.46 388.861)" stroke="#E6E8EE" stroke-opacity="0.1" stroke-width="2.22222"/>
<line y1="-1.11111" x2="39.0974" y2="-1.11111" transform="matrix(0.973338 -0.229376 0.490025 0.871709 372.338 387.223)" stroke="#E6E8EE" stroke-opacity="0.1" stroke-width="2.22222"/>
<line y1="-1.11111" x2="40.1411" y2="-1.11111" transform="matrix(0.993546 -0.113429 0.262763 0.96486 462.092 384.764)" stroke="#E6E8EE" stroke-opacity="0.1" stroke-width="2.22222"/>
<line y1="-1.11111" x2="37.442" y2="-1.11111" transform="matrix(-0.936693 -0.350151 0.665536 -0.746365 872.658 388.861)" stroke="#E6E8EE" stroke-opacity="0.1" stroke-width="2.22222"/>
<line y1="-1.11111" x2="35.3055" y2="-1.11111" transform="matrix(-0.878694 -0.477386 0.791708 -0.6109 960.748 391.32)" stroke="#E6E8EE" stroke-opacity="0.1" stroke-width="2.22222"/>
<line x1="603.371" y1="383.416" x2="562.874" y2="383.416" stroke="#E6E8EE" stroke-opacity="0.1" stroke-width="2.22222"/>
<line y1="-1.11111" x2="40.1411" y2="-1.11111" transform="matrix(-0.993546 -0.113429 0.262763 -0.96486 694.026 384.764)" stroke="#E6E8EE" stroke-opacity="0.1" stroke-width="2.22222"/>
<line y1="-1.11111" x2="39.0974" y2="-1.11111" transform="matrix(-0.973338 -0.229376 0.490025 -0.871708 783.78 387.223)" stroke="#E6E8EE" stroke-opacity="0.1" stroke-width="2.22222"/>
<line y1="-1.11111" x2="32.8797" y2="-1.11111" transform="matrix(0.791708 -0.6109 0.878694 0.477386 16.8787 438.845)" stroke="#E6E8EE" stroke-opacity="0.1" stroke-width="2.22222"/>
<line y1="-1.11111" x2="35.3055" y2="-1.11111" transform="matrix(0.878693 -0.477387 0.791707 0.610901 104.258 437.205)" stroke="#E6E8EE" stroke-opacity="0.1" stroke-width="2.22222"/>
<line y1="-1.11111" x2="37.442" y2="-1.11111" transform="matrix(0.936693 -0.350151 0.665536 0.746365 192.347 434.748)" stroke="#E6E8EE" stroke-opacity="0.1" stroke-width="2.22222"/>
<line y1="-1.11111" x2="39.0974" y2="-1.11111" transform="matrix(0.973338 -0.229376 0.490025 0.871709 281.225 433.11)" stroke="#E6E8EE" stroke-opacity="0.1" stroke-width="2.22222"/>
<line y1="-1.11111" x2="40.1411" y2="-1.11111" transform="matrix(0.993546 -0.11343 0.262763 0.96486 370.979 430.651)" stroke="#E6E8EE" stroke-opacity="0.1" stroke-width="2.22222"/>
<line y1="-1.11111" x2="37.442" y2="-1.11111" transform="matrix(-0.936693 -0.350151 0.665536 -0.746365 781.545 434.748)" stroke="#E6E8EE" stroke-opacity="0.1" stroke-width="2.22222"/>
<line y1="-1.11111" x2="35.3055" y2="-1.11111" transform="matrix(-0.878693 -0.477387 0.791707 -0.610901 869.622 437.205)" stroke="#E6E8EE" stroke-opacity="0.1" stroke-width="2.22222"/>
<line y1="-1.11111" x2="32.8798" y2="-1.11111" transform="matrix(-0.791709 -0.610899 0.878694 -0.477385 957.001 438.845)" stroke="#E6E8EE" stroke-opacity="0.1" stroke-width="2.22222"/>
<line x1="512.258" y1="429.304" x2="471.761" y2="429.304" stroke="#E6E8EE" stroke-opacity="0.1" stroke-width="2.22222"/>
<line y1="-1.11111" x2="40.1411" y2="-1.11111" transform="matrix(-0.993546 -0.113429 0.262763 -0.96486 602.914 430.651)" stroke="#E6E8EE" stroke-opacity="0.1" stroke-width="2.22222"/>
<line y1="-1.11111" x2="39.0974" y2="-1.11111" transform="matrix(-0.973338 -0.229376 0.490025 -0.871709 692.667 433.11)" stroke="#E6E8EE" stroke-opacity="0.1" stroke-width="2.22222"/>
<line y1="-1.11111" x2="35.3055" y2="-1.11111" transform="matrix(0.878694 -0.477386 0.791708 0.6109 13.1448 483.092)" stroke="#E6E8EE" stroke-opacity="0.1" stroke-width="2.22222"/>
<line y1="-1.11111" x2="37.442" y2="-1.11111" transform="matrix(0.936693 -0.350151 0.665536 0.746365 101.222 480.633)" stroke="#E6E8EE" stroke-opacity="0.1" stroke-width="2.22222"/>
<line y1="-1.11111" x2="39.0974" y2="-1.11111" transform="matrix(0.973338 -0.229376 0.490025 0.871709 190.1 478.995)" stroke="#E6E8EE" stroke-opacity="0.1" stroke-width="2.22222"/>
<line y1="-1.11111" x2="40.1411" y2="-1.11111" transform="matrix(0.993546 -0.11343 0.262763 0.96486 279.853 476.536)" stroke="#E6E8EE" stroke-opacity="0.1" stroke-width="2.22222"/>
<line y1="-1.11111" x2="37.442" y2="-1.11111" transform="matrix(-0.936693 -0.350152 0.665536 -0.746366 690.42 480.633)" stroke="#E6E8EE" stroke-opacity="0.1" stroke-width="2.22222"/>
<line y1="-1.11111" x2="35.3054" y2="-1.11111" transform="matrix(-0.878693 -0.477387 0.791707 -0.610901 778.51 483.092)" stroke="#E6E8EE" stroke-opacity="0.1" stroke-width="2.22222"/>
<line y1="-1.11111" x2="32.8797" y2="-1.11111" transform="matrix(-0.791707 -0.610901 0.878693 -0.477387 865.876 484.731)" stroke="#E6E8EE" stroke-opacity="0.1" stroke-width="2.22222"/>
<line y1="-1.11111" x2="30.4245" y2="-1.11111" transform="matrix(-0.665536 -0.746366 0.936693 -0.350152 952.67 485.551)" stroke="#E6E8EE" stroke-opacity="0.1" stroke-width="2.22222"/>
<line x1="421.133" y1="475.191" x2="380.635" y2="475.191" stroke="#E6E8EE" stroke-opacity="0.1" stroke-width="2.22222"/>
<line y1="-1.11111" x2="40.1411" y2="-1.11111" transform="matrix(-0.993546 -0.113429 0.262763 -0.96486 511.788 476.536)" stroke="#E6E8EE" stroke-opacity="0.1" stroke-width="2.22222"/>
<line y1="-1.11111" x2="39.0974" y2="-1.11111" transform="matrix(-0.973338 -0.229376 0.490025 -0.871709 601.542 478.995)" stroke="#E6E8EE" stroke-opacity="0.1" stroke-width="2.22222"/>
<line y1="-1.11111" x2="37.442" y2="-1.11111" transform="matrix(0.936693 -0.350151 0.665536 0.746365 10.1096 526.52)" stroke="#E6E8EE" stroke-opacity="0.1" stroke-width="2.22222"/>
<line y1="-1.11111" x2="39.0974" y2="-1.11111" transform="matrix(0.973338 -0.229376 0.490025 0.871709 98.9868 524.882)" stroke="#E6E8EE" stroke-opacity="0.1" stroke-width="2.22222"/>
<line y1="-1.11111" x2="40.1411" y2="-1.11111" transform="matrix(0.993546 -0.11343 0.262763 0.96486 188.74 522.423)" stroke="#E6E8EE" stroke-opacity="0.1" stroke-width="2.22222"/>
<line y1="-1.11111" x2="37.442" y2="-1.11111" transform="matrix(-0.936693 -0.350152 0.665536 -0.746366 599.307 526.52)" stroke="#E6E8EE" stroke-opacity="0.1" stroke-width="2.22222"/>
<line y1="-1.11111" x2="35.3055" y2="-1.11111" transform="matrix(-0.878693 -0.477387 0.791707 -0.610901 687.384 528.979)" stroke="#E6E8EE" stroke-opacity="0.1" stroke-width="2.22222"/>
<line y1="-1.11111" x2="32.8797" y2="-1.11111" transform="matrix(-0.791708 -0.6109 0.878694 -0.477386 774.763 530.618)" stroke="#E6E8EE" stroke-opacity="0.1" stroke-width="2.22222"/>
<line y1="-1.11111" x2="30.4246" y2="-1.11111" transform="matrix(-0.665537 -0.746365 0.936693 -0.350151 861.545 531.436)" stroke="#E6E8EE" stroke-opacity="0.1" stroke-width="2.22222"/>
<line y1="-1.11111" x2="28.2657" y2="-1.11111" transform="matrix(-0.490024 -0.871709 0.973338 -0.229377 947.87 532.256)" stroke="#E6E8EE" stroke-opacity="0.1" stroke-width="2.22222"/>
<line x1="330.02" y1="521.076" x2="289.523" y2="521.076" stroke="#E6E8EE" stroke-opacity="0.1" stroke-width="2.22222"/>
<line y1="-1.11111" x2="40.1411" y2="-1.11111" transform="matrix(-0.993546 -0.113429 0.262763 -0.96486 420.676 522.423)" stroke="#E6E8EE" stroke-opacity="0.1" stroke-width="2.22222"/>
<line y1="-1.11111" x2="39.0974" y2="-1.11111" transform="matrix(-0.973338 -0.229376 0.490025 -0.871708 510.429 524.882)" stroke="#E6E8EE" stroke-opacity="0.1" stroke-width="2.22222"/>
<line y1="-1.11111" x2="39.0974" y2="-1.11111" transform="matrix(0.973338 -0.229376 0.490025 0.871708 7.86133 570.767)" stroke="#E6E8EE" stroke-opacity="0.1" stroke-width="2.22222"/>
<line y1="-1.11111" x2="40.1411" y2="-1.11111" transform="matrix(0.993546 -0.11343 0.262763 0.96486 97.6152 568.311)" stroke="#E6E8EE" stroke-opacity="0.1" stroke-width="2.22222"/>
<line y1="-1.11111" x2="37.442" y2="-1.11111" transform="matrix(-0.936693 -0.350152 0.665535 -0.746367 508.181 572.408)" stroke="#E6E8EE" stroke-opacity="0.1" stroke-width="2.22222"/>
<line y1="-1.11111" x2="35.3055" y2="-1.11111" transform="matrix(-0.878694 -0.477386 0.791708 -0.6109 596.271 574.864)" stroke="#E6E8EE" stroke-opacity="0.1" stroke-width="2.22222"/>
<line y1="-1.11111" x2="32.8797" y2="-1.11111" transform="matrix(-0.791707 -0.610901 0.878693 -0.477387 683.65 576.503)" stroke="#E6E8EE" stroke-opacity="0.1" stroke-width="2.22222"/>
<line y1="-1.11111" x2="30.4246" y2="-1.11111" transform="matrix(-0.665537 -0.746365 0.936693 -0.350151 770.432 577.323)" stroke="#E6E8EE" stroke-opacity="0.1" stroke-width="2.22222"/>
<line y1="-1.11111" x2="28.2657" y2="-1.11111" transform="matrix(-0.490025 -0.871709 0.973338 -0.229376 856.745 578.143)" stroke="#E6E8EE" stroke-opacity="0.1" stroke-width="2.22222"/>
<line y1="-1.11111" x2="26.7628" y2="-1.11111" transform="matrix(-0.262763 -0.96486 0.993546 -0.113429 942.751 578.962)" stroke="#E6E8EE" stroke-opacity="0.1" stroke-width="2.22222"/>
<line x1="238.895" y1="566.963" x2="198.397" y2="566.963" stroke="#E6E8EE" stroke-opacity="0.1" stroke-width="2.22222"/>
<line y1="-1.11111" x2="40.1411" y2="-1.11111" transform="matrix(-0.993546 -0.11343 0.262763 -0.96486 329.551 568.311)" stroke="#E6E8EE" stroke-opacity="0.1" stroke-width="2.22222"/>
<line y1="-1.11111" x2="39.0974" y2="-1.11111" transform="matrix(-0.973338 -0.229376 0.490025 -0.871708 419.304 570.767)" stroke="#E6E8EE" stroke-opacity="0.1" stroke-width="2.22222"/>
<line y1="-1.11111" x2="40.1411" y2="-1.11111" transform="matrix(0.993546 -0.11343 0.262763 0.96486 6.50244 614.195)" stroke="#E6E8EE" stroke-opacity="0.1" stroke-width="2.22222"/>
<line y1="-1.11111" x2="37.442" y2="-1.11111" transform="matrix(-0.936693 -0.350152 0.665535 -0.746367 417.069 618.293)" stroke="#E6E8EE" stroke-opacity="0.1" stroke-width="2.22222"/>
<line y1="-1.11111" x2="35.3055" y2="-1.11111" transform="matrix(-0.878693 -0.477387 0.791707 -0.610901 505.146 620.751)" stroke="#E6E8EE" stroke-opacity="0.1" stroke-width="2.22222"/>
<line y1="-1.11111" x2="32.8797" y2="-1.11111" transform="matrix(-0.791708 -0.6109 0.878694 -0.477386 592.525 622.39)" stroke="#E6E8EE" stroke-opacity="0.1" stroke-width="2.22222"/>
<line y1="-1.11111" x2="30.4245" y2="-1.11111" transform="matrix(-0.665536 -0.746365 0.936693 -0.350151 679.307 623.21)" stroke="#E6E8EE" stroke-opacity="0.1" stroke-width="2.22222"/>
<line y1="-1.11111" x2="28.2657" y2="-1.11111" transform="matrix(-0.490027 -0.871707 0.973338 -0.229375 765.631 624.028)" stroke="#E6E8EE" stroke-opacity="0.1" stroke-width="2.22222"/>
<line y1="-1.11111" x2="26.7628" y2="-1.11111" transform="matrix(-0.262764 -0.96486 0.993546 -0.113429 851.638 624.848)" stroke="#E6E8EE" stroke-opacity="0.1" stroke-width="2.22222"/>
<line x1="936.37" y1="624.848" x2="936.37" y2="598.628" stroke="#E6E8EE" stroke-opacity="0.1" stroke-width="2.22222"/>
<line x1="147.782" y1="612.848" x2="107.284" y2="612.848" stroke="#E6E8EE" stroke-opacity="0.1" stroke-width="2.22222"/>
<line y1="-1.11111" x2="40.1411" y2="-1.11111" transform="matrix(-0.993546 -0.11343 0.262763 -0.96486 238.437 614.195)" stroke="#E6E8EE" stroke-opacity="0.1" stroke-width="2.22222"/>
<line y1="-1.11111" x2="39.0974" y2="-1.11111" transform="matrix(-0.973338 -0.229376 0.490025 -0.871708 328.191 616.654)" stroke="#E6E8EE" stroke-opacity="0.1" stroke-width="2.22222"/>
<line y1="-1.11111" x2="37.442" y2="-1.11111" transform="matrix(-0.936693 -0.350151 0.665537 -0.746365 325.943 664.18)" stroke="#E6E8EE" stroke-opacity="0.1" stroke-width="2.22222"/>
<line y1="-1.11111" x2="35.3055" y2="-1.11111" transform="matrix(-0.878694 -0.477386 0.791708 -0.6109 414.033 666.636)" stroke="#E6E8EE" stroke-opacity="0.1" stroke-width="2.22222"/>
<line y1="-1.11111" x2="32.8797" y2="-1.11111" transform="matrix(-0.791708 -0.6109 0.878694 -0.477386 501.413 668.277)" stroke="#E6E8EE" stroke-opacity="0.1" stroke-width="2.22222"/>
<line y1="-1.11111" x2="30.4245" y2="-1.11111" transform="matrix(-0.665536 -0.746365 0.936693 -0.350151 588.194 669.095)" stroke="#E6E8EE" stroke-opacity="0.1" stroke-width="2.22222"/>
<line y1="-1.11111" x2="28.2657" y2="-1.11111" transform="matrix(-0.490025 -0.871709 0.973338 -0.229376 674.506 669.915)" stroke="#E6E8EE" stroke-opacity="0.1" stroke-width="2.22222"/>
<line y1="-1.11111" x2="26.7629" y2="-1.11111" transform="matrix(-0.262763 -0.96486 0.993546 -0.113429 760.513 670.733)" stroke="#E6E8EE" stroke-opacity="0.1" stroke-width="2.22222"/>
<line x1="845.244" y1="670.733" x2="845.244" y2="644.513" stroke="#E6E8EE" stroke-opacity="0.1" stroke-width="2.22222"/>
<line y1="-1.11111" x2="26.7629" y2="-1.11111" transform="matrix(0.262763 -0.96486 0.993546 0.113429 932.21 670.733)" stroke="#E6E8EE" stroke-opacity="0.1" stroke-width="2.22222"/>
<line x1="56.6562" y1="658.735" x2="16.159" y2="658.735" stroke="#E6E8EE" stroke-opacity="0.1" stroke-width="2.22222"/>
<line y1="-1.11111" x2="40.1411" y2="-1.11111" transform="matrix(-0.993546 -0.11343 0.262763 -0.96486 147.312 660.083)" stroke="#E6E8EE" stroke-opacity="0.1" stroke-width="2.22222"/>
<line y1="-1.11111" x2="39.0974" y2="-1.11111" transform="matrix(-0.973338 -0.229376 0.490025 -0.871709 237.066 662.541)" stroke="#E6E8EE" stroke-opacity="0.1" stroke-width="2.22222"/>
<line y1="-1.11111" x2="28.2657" y2="-1.11111" transform="matrix(0.490025 -0.871709 0.973338 0.229376 927.092 715.801)" stroke="#E6E8EE" stroke-opacity="0.1" stroke-width="2.22222"/>
<line y1="-1.11111" x2="37.442" y2="-1.11111" transform="matrix(-0.936693 -0.350152 0.665535 -0.746366 234.83 710.065)" stroke="#E6E8EE" stroke-opacity="0.1" stroke-width="2.22222"/>
<line y1="-1.11111" x2="35.3055" y2="-1.11111" transform="matrix(-0.878693 -0.477388 0.791707 -0.610902 322.908 712.524)" stroke="#E6E8EE" stroke-opacity="0.1" stroke-width="2.22222"/>
<line y1="-1.11111" x2="32.8797" y2="-1.11111" transform="matrix(-0.791708 -0.6109 0.878694 -0.477386 410.287 714.162)" stroke="#E6E8EE" stroke-opacity="0.1" stroke-width="2.22222"/>
<line y1="-1.11111" x2="30.4245" y2="-1.11111" transform="matrix(-0.665537 -0.746364 0.936693 -0.35015 497.068 714.982)" stroke="#E6E8EE" stroke-opacity="0.1" stroke-width="2.22222"/>
<line y1="-1.11111" x2="28.2657" y2="-1.11111" transform="matrix(-0.490025 -0.871709 0.973338 -0.229376 583.393 715.801)" stroke="#E6E8EE" stroke-opacity="0.1" stroke-width="2.22222"/>
<line y1="-1.11111" x2="26.7628" y2="-1.11111" transform="matrix(-0.262764 -0.96486 0.993546 -0.113429 669.401 716.621)" stroke="#E6E8EE" stroke-opacity="0.1" stroke-width="2.22222"/>
<line x1="754.131" y1="716.621" x2="754.131" y2="690.4" stroke="#E6E8EE" stroke-opacity="0.1" stroke-width="2.22222"/>
<line y1="-1.11111" x2="26.7628" y2="-1.11111" transform="matrix(0.262761 -0.964861 0.993546 0.11343 841.084 716.621)" stroke="#E6E8EE" stroke-opacity="0.1" stroke-width="2.22222"/>
<line y1="-1.11111" x2="40.1411" y2="-1.11111" transform="matrix(-0.993546 -0.11343 0.262763 -0.96486 56.1995 705.968)" stroke="#E6E8EE" stroke-opacity="0.1" stroke-width="2.22222"/>
<line y1="-1.11111" x2="39.0974" y2="-1.11111" transform="matrix(-0.973338 -0.229376 0.490025 -0.871709 145.953 708.426)" stroke="#E6E8EE" stroke-opacity="0.1" stroke-width="2.22222"/>
<line y1="-1.11111" x2="28.2657" y2="-1.11111" transform="matrix(0.490025 -0.871709 0.973338 0.229376 835.979 761.688)" stroke="#E6E8EE" stroke-opacity="0.1" stroke-width="2.22222"/>
<line y1="-1.11111" x2="30.4246" y2="-1.11111" transform="matrix(0.665537 -0.746365 0.936693 0.350151 922.291 760.867)" stroke="#E6E8EE" stroke-opacity="0.1" stroke-width="2.22222"/>
<line y1="-1.11111" x2="37.442" y2="-1.11111" transform="matrix(-0.936693 -0.350151 0.665537 -0.746365 143.705 755.952)" stroke="#E6E8EE" stroke-opacity="0.1" stroke-width="2.22222"/>
<line y1="-1.11111" x2="35.3055" y2="-1.11111" transform="matrix(-0.878694 -0.477386 0.791708 -0.6109 231.795 758.411)" stroke="#E6E8EE" stroke-opacity="0.1" stroke-width="2.22222"/>
<line y1="-1.11111" x2="32.8797" y2="-1.11111" transform="matrix(-0.791708 -0.6109 0.878694 -0.477386 319.174 760.049)" stroke="#E6E8EE" stroke-opacity="0.1" stroke-width="2.22222"/>
<line y1="-1.11111" x2="30.4245" y2="-1.11111" transform="matrix(-0.665536 -0.746365 0.936693 -0.350151 405.956 760.867)" stroke="#E6E8EE" stroke-opacity="0.1" stroke-width="2.22222"/>
<line y1="-1.11111" x2="28.2657" y2="-1.11111" transform="matrix(-0.490025 -0.871709 0.973338 -0.229376 492.268 761.688)" stroke="#E6E8EE" stroke-opacity="0.1" stroke-width="2.22222"/>
<line y1="-1.11111" x2="26.7628" y2="-1.11111" transform="matrix(-0.262764 -0.96486 0.993546 -0.113429 578.275 762.508)" stroke="#E6E8EE" stroke-opacity="0.1" stroke-width="2.22222"/>
<line x1="663.006" y1="762.508" x2="663.006" y2="736.287" stroke="#E6E8EE" stroke-opacity="0.1" stroke-width="2.22222"/>
<line y1="-1.11111" x2="26.7628" y2="-1.11111" transform="matrix(0.262761 -0.964861 0.993546 0.11343 749.972 762.508)" stroke="#E6E8EE" stroke-opacity="0.1" stroke-width="2.22222"/>
<line y1="-1.11111" x2="39.0974" y2="-1.11111" transform="matrix(-0.973337 -0.229378 0.490022 -0.87171 54.8274 754.313)" stroke="#E6E8EE" stroke-opacity="0.1" stroke-width="2.22222"/>
<line y1="-1.11111" x2="28.2658" y2="-1.11111" transform="matrix(0.490026 -0.871708 0.973338 0.229376 744.854 807.574)" stroke="#E6E8EE" stroke-opacity="0.1" stroke-width="2.22222"/>
<line y1="-1.11111" x2="30.4246" y2="-1.11111" transform="matrix(0.665537 -0.746365 0.936693 0.350151 831.178 806.754)" stroke="#E6E8EE" stroke-opacity="0.1" stroke-width="2.22222"/>
<line y1="-1.11111" x2="32.8797" y2="-1.11111" transform="matrix(0.791708 -0.6109 0.878694 0.477386 917.96 805.934)" stroke="#E6E8EE" stroke-opacity="0.1" stroke-width="2.22222"/>
<line y1="-1.11111" x2="37.442" y2="-1.11111" transform="matrix(-0.936693 -0.350152 0.665535 -0.746366 52.5923 801.839)" stroke="#E6E8EE" stroke-opacity="0.1" stroke-width="2.22222"/>
<line y1="-1.11111" x2="35.3055" y2="-1.11111" transform="matrix(-0.878694 -0.477386 0.791708 -0.6109 140.669 804.295)" stroke="#E6E8EE" stroke-opacity="0.1" stroke-width="2.22222"/>
<line y1="-1.11111" x2="32.8797" y2="-1.11111" transform="matrix(-0.791708 -0.6109 0.878694 -0.477386 228.048 805.934)" stroke="#E6E8EE" stroke-opacity="0.1" stroke-width="2.22222"/>
<line y1="-1.11111" x2="30.4245" y2="-1.11111" transform="matrix(-0.665536 -0.746365 0.936693 -0.350151 314.831 806.754)" stroke="#E6E8EE" stroke-opacity="0.1" stroke-width="2.22222"/>
<line y1="-1.11111" x2="28.2657" y2="-1.11111" transform="matrix(-0.490024 -0.871709 0.973338 -0.229377 401.155 807.574)" stroke="#E6E8EE" stroke-opacity="0.1" stroke-width="2.22222"/>
<line y1="-1.11111" x2="26.7628" y2="-1.11111" transform="matrix(-0.262764 -0.96486 0.993546 -0.113429 487.162 808.393)" stroke="#E6E8EE" stroke-opacity="0.1" stroke-width="2.22222"/>
<line x1="571.893" y1="808.393" x2="571.893" y2="782.172" stroke="#E6E8EE" stroke-opacity="0.1" stroke-width="2.22222"/>
<line y1="-1.11111" x2="26.7628" y2="-1.11111" transform="matrix(0.262764 -0.96486 0.993546 0.113429 658.846 808.393)" stroke="#E6E8EE" stroke-opacity="0.1" stroke-width="2.22222"/>
<line y1="-1.11111" x2="28.2657" y2="-1.11111" transform="matrix(0.490025 -0.871709 0.973338 0.229376 653.741 853.459)" stroke="#E6E8EE" stroke-opacity="0.1" stroke-width="2.22222"/>
<line y1="-1.11111" x2="30.4245" y2="-1.11111" transform="matrix(0.665536 -0.746366 0.936693 0.350152 740.053 852.641)" stroke="#E6E8EE" stroke-opacity="0.1" stroke-width="2.22222"/>
<line y1="-1.11111" x2="32.8797" y2="-1.11111" transform="matrix(0.791708 -0.6109 0.878694 0.477386 826.835 851.821)" stroke="#E6E8EE" stroke-opacity="0.1" stroke-width="2.22222"/>
<line y1="-1.11111" x2="35.3055" y2="-1.11111" transform="matrix(0.878694 -0.477386 0.791708 0.6109 914.213 850.183)" stroke="#E6E8EE" stroke-opacity="0.1" stroke-width="2.22222"/>
<line y1="-1.11111" x2="35.3055" y2="-1.11111" transform="matrix(-0.878694 -0.477386 0.791708 -0.6109 49.5569 850.183)" stroke="#E6E8EE" stroke-opacity="0.1" stroke-width="2.22222"/>
<line y1="-1.11111" x2="32.8797" y2="-1.11111" transform="matrix(-0.791708 -0.6109 0.878694 -0.477386 136.936 851.821)" stroke="#E6E8EE" stroke-opacity="0.1" stroke-width="2.22222"/>
<line y1="-1.11111" x2="30.4245" y2="-1.11111" transform="matrix(-0.665536 -0.746365 0.936693 -0.350151 223.717 852.641)" stroke="#E6E8EE" stroke-opacity="0.1" stroke-width="2.22222"/>
<line y1="-1.11111" x2="28.2657" y2="-1.11111" transform="matrix(-0.490025 -0.871708 0.973338 -0.229376 310.03 853.459)" stroke="#E6E8EE" stroke-opacity="0.1" stroke-width="2.22222"/>
<line y1="-1.11111" x2="26.7628" y2="-1.11111" transform="matrix(-0.262764 -0.96486 0.993546 -0.113429 396.037 854.28)" stroke="#E6E8EE" stroke-opacity="0.1" stroke-width="2.22222"/>
<line x1="480.768" y1="854.28" x2="480.768" y2="828.059" stroke="#E6E8EE" stroke-opacity="0.1" stroke-width="2.22222"/>
<line y1="-1.11111" x2="26.7628" y2="-1.11111" transform="matrix(0.262762 -0.964861 0.993546 0.11343 567.734 854.28)" stroke="#E6E8EE" stroke-opacity="0.1" stroke-width="2.22222"/>
</svg>
